{
  "accessors": [
    {
      "bufferView": 2,
      "componentType": 5126,
      "count": 26436,
      "max": [
        39.388954162597656,
        69.68280029296875,
        51.42207336425781
      ],
      "min": [
        -35.46754455566406,
        -99.83999633789063,
        -24.92204475402832
      ],
      "type": "VEC3"
    },
    {
      "bufferView": 2,
      "byteOffset": 317232,
      "componentType": 5126,
      "count": 26436,
      "max": [
        0.9999805092811584,
        0.9998684525489807,
        0.999905526638031
      ],
      "min": [
        -0.9998487234115601,
        -0.9997671842575073,
        -0.9999410510063171
      ],
      "type": "VEC3"
    },
    {
      "bufferView": 1,
      "componentType": 5126,
      "count": 26436,
      "max": [
        0.998336911201477,
        0.99609375
      ],
      "min": [
        0.0014211270026862621,
        0.002751767635345459
      ],
      "type": "VEC2"
    },
    {
      "bufferView": 0,
      "componentType": 5125,
      "count": 26436,
      "type": "SCALAR"
    },
    {
      "bufferView": 2,
      "byteOffset": 634464,
      "componentType": 5126,
      "count": 3789,
      "max": [
        16.457324981689453,
        63.84278869628906,
        16.710060119628906
      ],
      "min": [
        -12.504800796508789,
        32.17552185058594,
        -10.774101257324219
      ],
      "type": "VEC3"
    },
    {
      "bufferView": 2,
      "byteOffset": 679932,
      "componentType": 5126,
      "count": 3789,
      "max": [
        0.9997515082359314,
        0.9988056421279907,
        0.9998568892478943
      ],
      "min": [
        -0.9984261989593506,
        -0.9963931441307068,
        -0.9997795820236206
      ],
      "type": "VEC3"
    },
    {
      "bufferView": 1,
      "byteOffset": 211488,
      "componentType": 5126,
      "count": 3789,
      "max": [
        0.9915000200271606,
        0.9933000206947327
      ],
      "min": [
        0.004800000227987766,
        0.0045999884605407715
      ],
      "type": "VEC2"
    },
    {
      "bufferView": 0,
      "byteOffset": 105744,
      "componentType": 5125,
      "count": 3789,
      "type": "SCALAR"
    },
    {
      "bufferView": 2,
      "byteOffset": 725400,
      "componentType": 5126,
      "count": 780,
      "max": [
        4.086280345916748,
        1.0999666452407837,
        15.039630889892578
      ],
      "min": [
        -4.113334655761719,
        -1.037436604499817,
        -18.107784271240234
      ],
      "type": "VEC3"
    },
    {
      "bufferView": 2,
      "byteOffset": 734760,
      "componentType": 5126,
      "count": 780,
      "max": [
        0.9763284921646118,
        0.9962192177772522,
        0.9999886155128479
      ],
      "min": [
        -0.976328432559967,
        -1.0,
        -0.7610078454017639
      ],
      "type": "VEC3"
    },
    {
      "bufferView": 1,
      "byteOffset": 241800,
      "componentType": 5126,
      "count": 780,
      "max": [
        0.9924451112747192,
        0.9921875
      ],
      "min": [
        0.0078125,
        0.07575243711471558
      ],
      "type": "VEC2"
    },
    {
      "bufferView": 0,
      "byteOffset": 120900,
      "componentType": 5125,
      "count": 780,
      "type": "SCALAR"
    },
    {
      "bufferView": 2,
      "byteOffset": 744120,
      "componentType": 5126,
      "count": 870,
      "max": [
        2.4184112548828125,
        19.652801513671875,
        8.700782775878906
      ],
      "min": [
        -10.586373329162598,
        -2.7559280395507813,
        -4.954860687255859
      ],
      "type": "VEC3"
    },
    {
      "bufferView": 2,
      "byteOffset": 754560,
      "componentType": 5126,
      "count": 870,
      "max": [
        0.9958931803703308,
        0.9938279390335083,
        0.9985855221748352
      ],
      "min": [
        -0.9999294877052307,
        -0.9990938901901245,
        -0.9988686442375183
      ],
      "type": "VEC3"
    },
    {
      "bufferView": 1,
      "byteOffset": 248040,
      "componentType": 5126,
      "count": 870,
      "max": [
        0.9928879737854004,
        0.17065101861953735
      ],
      "min": [
        0.7447800040245056,
        0.006227016448974609
      ],
      "type": "VEC2"
    },
    {
      "bufferView": 0,
      "byteOffset": 124020,
      "componentType": 5125,
      "count": 870,
      "type": "SCALAR"
    },
    {
      "bufferView": 2,
      "byteOffset": 765000,
      "componentType": 5126,
      "count": 870,
      "max": [
        8.687530517578125,
        3.084512710571289,
        4.914186477661133
      ],
      "min": [
        -2.35565185546875,
        -12.506401062011719,
        -8.077030181884766
      ],
      "type": "VEC3"
    },
    {
      "bufferView": 2,
      "byteOffset": 775440,
      "componentType": 5126,
      "count": 870,
      "max": [
        0.9987367391586304,
        0.9673483967781067,
        0.9997970461845398
      ],
      "min": [
        -0.9998130202293396,
        -0.9935665726661682,
        -0.9968791007995605
      ],
      "type": "VEC3"
    },
    {
      "bufferView": 1,
      "byteOffset": 255000,
      "componentType": 5126,
      "count": 870,
      "max": [
        0.9928879737854004,
        0.17065101861953735
      ],
      "min": [
        0.7447800040245056,
        0.006227016448974609
      ],
      "type": "VEC2"
    },
    {
      "bufferView": 0,
      "byteOffset": 127500,
      "componentType": 5125,
      "count": 870,
      "type": "SCALAR"
    },
    {
      "bufferView": 2,
      "byteOffset": 785880,
      "componentType": 5126,
      "count": 396,
      "max": [
        12.464652061462402,
        8.586042404174805,
        -0.5732465386390686
      ],
      "min": [
        -14.581217765808105,
        -57.39265441894531,
        -11.418370246887207
      ],
      "type": "VEC3"
    },
    {
      "bufferView": 2,
      "byteOffset": 790632,
      "componentType": 5126,
      "count": 396,
      "max": [
        0.5641114115715027,
        0.5227728486061096,
        -0.730409562587738
      ],
      "min": [
        -0.5427675247192383,
        -0.3815176486968994,
        -0.9998347759246826
      ],
      "type": "VEC3"
    },
    {
      "bufferView": 1,
      "byteOffset": 261960,
      "componentType": 5126,
      "count": 396,
      "max": [
        0.6625099182128906,
        0.99609375
      ],
      "min": [
        0.3055712878704071,
        0.9074627757072449
      ],
      "type": "VEC2"
    },
    {
      "bufferView": 0,
      "byteOffset": 130980,
      "componentType": 5125,
      "count": 396,
      "type": "SCALAR"
    },
    {
      "bufferView": 2,
      "byteOffset": 795384,
      "componentType": 5126,
      "count": 1023,
      "max": [
        7.064384460449219,
        6.979705810546875,
        82.1090316772461
      ],
      "min": [
        -7.1757049560546875,
        -7.112457275390625,
        -32.99285125732422
      ],
      "type": "VEC3"
    },
    {
      "bufferView": 2,
      "byteOffset": 807660,
      "componentType": 5126,
      "count": 1023,
      "max": [
        1.0,
        1.0,
        1.0
      ],
      "min": [
        -1.0,
        -1.0,
        -1.0
      ],
      "type": "VEC3"
    },
    {
      "bufferView": 1,
      "byteOffset": 265128,
      "componentType": 5126,
      "count": 1023,
      "max": [
        0.9363399744033813,
        0.9853559732437134
      ],
      "min": [
        0.024692000821232796,
        0.01409602165222168
      ],
      "type": "VEC2"
    },
    {
      "bufferView": 0,
      "byteOffset": 132564,
      "componentType": 5125,
      "count": 1071,
      "type": "SCALAR"
    },
    {
      "bufferView": 2,
      "byteOffset": 819936,
      "componentType": 5126,
      "count": 1023,
      "max": [
        7.064384460449219,
        6.979705810546875,
        82.1090316772461
      ],
      "min": [
        -7.1757049560546875,
        -7.112457275390625,
        -32.99285125732422
      ],
      "type": "VEC3"
    },
    {
      "bufferView": 2,
      "byteOffset": 832212,
      "componentType": 5126,
      "count": 1023,
      "max": [
        1.0,
        1.0,
        1.0
      ],
      "min": [
        -1.0,
        -1.0,
        -1.0
      ],
      "type": "VEC3"
    },
    {
      "bufferView": 1,
      "byteOffset": 273312,
      "componentType": 5126,
      "count": 1023,
      "max": [
        0.9363399744033813,
        0.9853559732437134
      ],
      "min": [
        0.024692000821232796,
        0.01409602165222168
      ],
      "type": "VEC2"
    },
    {
      "bufferView": 0,
      "byteOffset": 136848,
      "componentType": 5125,
      "count": 1071,
      "type": "SCALAR"
    }
  ],
  "asset": {
    "extras": {
      "author": "danielgobr481 (https://sketchfab.com/danielgobr481)",
      "license": "CC-BY-4.0 (http://creativecommons.org/licenses/by/4.0/)",
      "source": "https://sketchfab.com/3d-models/ninja-a0bbe212318b4ee9bfaec55a3e060227",
      "title": "Ninja"
    },
    "generator": "Sketchfab-13.68.0",
    "version": "2.0"
  },
  "bufferViews": [
    {
      "buffer": 0,
      "byteLength": 141132,
      "name": "floatBufferViews",
      "target": 34963
    },
    {
      "buffer": 0,
      "byteLength": 281496,
      "byteOffset": 141132,
      "byteStride": 8,
      "name": "floatBufferViews",
      "target": 34962
    },
    {
      "buffer": 0,
      "byteLength": 844488,
      "byteOffset": 422628,
      "byteStride": 12,
      "name": "floatBufferViews",
      "target": 34962
    }
  ],
  "buffers": [
    {
      "byteLength": 1267116,
      "uri": "scene.bin"
    }
  ],
  "images": [
    {
      "uri": "textures/mat_0_baseColor.jpeg"
    },
    {
      "uri": "textures/mat_0_metallicRoughness.png"
    },
    {
      "uri": "textures/mat_1_baseColor.jpeg"
    },
    {
      "uri": "textures/mat_2_baseColor.jpeg"
    },
    {
      "uri": "textures/mat_2_metallicRoughness.png"
    },
    {
      "uri": "textures/mat_2.002_baseColor.jpeg"
    }
  ],
  "materials": [
    {
      "doubleSided": true,
      "name": "mat_0",
      "pbrMetallicRoughness": {
        "baseColorTexture": {
          "index": 0
        },
        "metallicRoughnessTexture": {
          "index": 1
        }
      }
    },
    {
      "doubleSided": true,
      "name": "mat_1",
      "pbrMetallicRoughness": {
        "baseColorTexture": {
          "index": 2
        },
        "metallicRoughnessTexture": {
          "index": 1
        }
      }
    },
    {
      "doubleSided": true,
      "name": "mat_2",
      "pbrMetallicRoughness": {
        "baseColorTexture": {
          "index": 3
        },
        "metallicRoughnessTexture": {
          "index": 4
        }
      }
    },
    {
      "doubleSided": true,
      "name": "mat_2.002",
      "pbrMetallicRoughness": {
        "baseColorTexture": {
          "index": 5
        },
        "metallicRoughnessTexture": {
          "index": 1
        }
      }
    },
    {
      "doubleSided": true,
      "name": "mat_2.001",
      "pbrMetallicRoughness": {
        "baseColorTexture": {
          "index": 5
        },
        "metallicRoughnessTexture": {
          "index": 1
        }
      }
    }
  ],
  "meshes": [
    {
      "name": "Body_mat_0_0",
      "primitives": [
        {
          "attributes": {
            "NORMAL": 1,
            "POSITION": 0,
            "TEXCOORD_0": 2
          },
          "indices": 3,
          "material": 0,
          "mode": 4
        }
      ]
    },
    {
      "name": "Helmet_mat_1_0",
      "primitives": [
        {
          "attributes": {
            "NORMAL": 5,
            "POSITION": 4,
            "TEXCOORD_0": 6
          },
          "indices": 7,
          "material": 1,
          "mode": 4
        }
      ]
    },
    {
      "name": "Kunai_mat_2_0",
      "primitives": [
        {
          "attributes": {
            "NORMAL": 9,
            "POSITION": 8,
            "TEXCOORD_0": 10
          },
          "indices": 11,
          "material": 2,
          "mode": 4
        }
      ]
    },
    {
      "name": "R.Hand_mat_0_0",
      "primitives": [
        {
          "attributes": {
            "NORMAL": 13,
            "POSITION": 12,
            "TEXCOORD_0": 14
          },
          "indices": 15,
          "material": 0,
          "mode": 4
        }
      ]
    },
    {
      "name": "L.Hand_mat_0_0",
      "primitives": [
        {
          "attributes": {
            "NORMAL": 17,
            "POSITION": 16,
            "TEXCOORD_0": 18
          },
          "indices": 19,
          "material": 0,
          "mode": 4
        }
      ]
    },
    {
      "name": "Cloth_mat_0_0",
      "primitives": [
        {
          "attributes": {
            "NORMAL": 21,
            "POSITION": 20,
            "TEXCOORD_0": 22
          },
          "indices": 23,
          "material": 0,
          "mode": 4
        }
      ]
    },
    {
      "name": "Ninjato 2_mat_2.002_0",
      "primitives": [
        {
          "attributes": {
            "NORMAL": 25,
            "POSITION": 24,
            "TEXCOORD_0": 26
          },
          "indices": 27,
          "material": 3,
          "mode": 4
        }
      ]
    },
    {
      "name": "Ninjato 1_mat_2.001_0",
      "primitives": [
        {
          "attributes": {
            "NORMAL": 29,
            "POSITION": 28,
            "TEXCOORD_0": 30
          },
          "indices": 31,
          "material": 4,
          "mode": 4
        }
      ]
    }
  ],
  "nodes": [
    {
      "children": [
        1
      ],
      "matrix": [
        1.0,
        0.0,
        0.0,
        0.0,
        0.0,
        2.220446049250313e-16,
        -1.0,
        0.0,
        0.0,
        1.0,
        2.220446049250313e-16,
        0.0,
        0.0,
        0.0,
        0.0,
        1.0
      ],
      "name": "Sketchfab_model"
    },
    {
      "children": [
        2
      ],
      "matrix": [
        0.009999999776482582,
        0.0,
        0.0,
        0.0,
        0.0,
        0.0,
        0.009999999776482582,
        0.0,
        0.0,
        -0.009999999776482582,
        0.0,
        0.0,
        0.0,
        0.0,
        0.0,
        1.0
      ],
      "name": "5b32c30632f94e0daeca5fd0f37626b6.fbx"
    },
    {
      "children": [
        3,
        5,
        7,
        9,
        11,
        13,
        15,
        17
      ],
      "name": "RootNode"
    },
    {
      "children": [
        4
      ],
      "matrix": [
        99.88824784483631,
        -4.7261418313150205,
        -6.228753034285626e-07,
        0.0,
        4.605011313697871,
        97.32811960306704,
        22.495099009627513,
        0.0,
        -1.0631497591688062,
        -22.46996199468358,
        97.43700013171694,
        0.0,
        -137.07144165039063,
        9836.267578125,
        0.0,
        1.0
      ],
      "name": "Body"
    },
    {
      "mesh": 0,
      "name": "Body_mat_0_0"
    },
    {
      "children": [
        6
      ],
      "matrix": [
        99.83628327668693,
        5.719970924409297,
        7.685285883383999e-07,
        0.0,
        -5.719970924409325,
        99.83628327668683,
        4.327107180742158e-06,
        0.0,
        -5.197610266001273e-07,
        -4.36398192855951e-06,
        99.9999999999999,
        0.0,
        -409.0047912597656,
        12831.8193359375,
        0.0,
        1.0
      ],
      "name": "Helmet"
    },
    {
      "mesh": 1,
      "name": "Helmet_mat_1_0"
    },
    {
      "children": [
        8
      ],
      "matrix": [
        -37.815390557213256,
        -14.426346153369185,
        91.44329813424596,
        0.0,
        -34.858487768372825,
        -89.28903192475342,
        -28.50183517674886,
        0.0,
        85.7606090667949,
        -42.65383118318361,
        28.736190037805052,
        0.0,
        2800.282958984375,
        13600.830078125,
        5527.271484375,
        1.0
      ],
      "name": "Kunai"
    },
    {
      "mesh": 2,
      "name": "Kunai_mat_2_0"
    },
    {
      "children": [
        10
      ],
      "matrix": [
        -98.75372809119057,
        6.877756654045133,
        14.156241640276745,
        0.0,
        2.9746632234654284,
        -80.1684065528027,
        59.70072397896577,
        0.0,
        15.45490386675073,
        59.377791140558614,
        78.96470012440808,
        0.0,
        -2994.981689453125,
        9459.857421875,
        1533.382080078125,
        1.0
      ],
      "name": "R.Hand"
    },
    {
      "mesh": 3,
      "name": "R.Hand_mat_0_0"
    },
    {
      "children": [
        12
      ],
      "matrix": [
        -20.05239431724606,
        -97.3750319730828,
        -10.770615407939536,
        0.0,
        57.17898136009364,
        -2.7053608124732786,
        -81.9953969043165,
        0.0,
        79.55165387421621,
        -22.600566761431224,
        56.220536709809075,
        0.0,
        2748.1630859375,
        14231.806640625,
        4825.93798828125,
        1.0
      ],
      "name": "L.Hand"
    },
    {
      "mesh": 4,
      "name": "L.Hand_mat_0_0"
    },
    {
      "children": [
        14
      ],
      "matrix": [
        99.88824784483631,
        -4.7261418313150205,
        -6.228753034285626e-07,
        0.0,
        4.605011313697871,
        97.32811960306704,
        22.495099009627513,
        0.0,
        -1.0631497591688062,
        -22.46996199468358,
        97.43700013171694,
        0.0,
        -137.07144165039063,
        9836.267578125,
        0.0,
        1.0
      ],
      "name": "Cloth"
    },
    {
      "mesh": 5,
      "name": "Cloth_mat_0_0"
    },
    {
      "children": [
        16
      ],
      "matrix": [
        -84.0444231289167,
        54.189790690209435,
        7.142618756631402e-06,
        0.0,
        9.285591490160172e-06,
        2.7582023054417704e-05,
        -99.99999999999577,
        0.0,
        -54.18979069020912,
        -84.0444231289125,
        -2.8212994763984883e-05,
        0.0,
        1252.1754150390625,
        16221.8798828125,
        -1647.99169921875,
        1.0
      ],
      "name": "Ninjato 2"
    },
    {
      "mesh": 6,
      "name": "Ninjato 2_mat_2.002_0"
    },
    {
      "children": [
        18
      ],
      "matrix": [
        79.72685967724895,
        60.36247050944932,
        1.0734963501457528e-05,
        -0.0,
        -3.194357661717717e-06,
        2.2003281907601036e-05,
        -99.99999999999753,
        -0.0,
        60.36247050945018,
        -79.72685967724664,
        -1.9470718903846773e-05,
        -0.0,
        -1750.3380126953125,
        15815.2939453125,
        -1790.7093505859375,
        1.0
      ],
      "name": "Ninjato 1"
    },
    {
      "mesh": 7,
      "name": "Ninjato 1_mat_2.001_0"
    }
  ],
  "samplers": [
    {
      "magFilter": 9729,
      "minFilter": 9987,
      "wrapS": 10497,
      "wrapT": 10497
    }
  ],
  "scene": 0,
  "scenes": [
    {
      "name": "Sketchfab_Scene",
      "nodes": [
        0
      ]
    }
  ],
  "textures": [
    {
      "sampler": 0,
      "source": 0
    },
    {
      "sampler": 0,
      "source": 1
    },
    {
      "sampler": 0,
      "source": 2
    },
    {
      "sampler": 0,
      "source": 3
    },
    {
      "sampler": 0,
      "source": 4
    },
    {
      "sampler": 0,
      "source": 5
    }
  ]
}
